<?xml version="1.0" encoding="UTF-8"?>
<svg width="334px" height="513px" viewBox="0 0 334 513" version="1.1" xmlns="http://www.w3.org/2000/svg" xmlns:xlink="http://www.w3.org/1999/xlink">
    <g id="Artboard" stroke="none" stroke-width="1" fill="none" fill-rule="evenodd">
        <g id="Group-91" transform="translate(18.000000, 17.000000)">
            <g id="Group-3" transform="translate(40.000000, 456.000000)" fill="#ABE4E4">
                <path d="M223.694828,14.8590727 C223.694828,22.6679818 173.721552,29.0005273 112.076724,29.0005273 C50.4293103,29.0005273 0.456034483,22.6679818 0.456034483,14.8590727 C0.456034483,7.05016364 50.4293103,0.717618182 112.076724,0.717618182 C173.721552,0.717618182 223.694828,7.05016364 223.694828,14.8590727" id="Fill-1"></path>
            </g>
            <path d="M252.296894,280.677155 C264.380994,282.315403 273.865882,291.8771 279.681914,302.055765 C282.578103,307.128033 283.445383,312.972167 284.296894,318.677155" id="Stroke-4" stroke="#6D4144" transform="translate(268.296894, 299.677155) scale(1, -1) rotate(-14.000000) translate(-268.296894, -299.677155) "></path>
            <g id="Group-8" transform="translate(291.005112, 284.816211) scale(1, -1) rotate(33.000000) translate(-291.005112, -284.816211) translate(277.005112, 271.816211)" fill="#6D4144">
                <path d="M10.8079983,12.200723 C10.8998733,12.1342786 10.9969983,12.0831675 11.1046233,12.0473897 C11.8422483,11.8148342 12.5063733,12.5380564 12.8659983,13.2050564 C13.7873733,14.914723 14.2336233,16.8288342 14.9869983,18.6126119 C15.7692483,20.4653897 18.0556233,24.1402786 20.5598733,23.723723 C23.0772483,23.3020564 23.3082483,20.020723 22.9984983,18.0733897 C22.2897483,13.649723 20.5021233,9.39216749 17.8246233,5.75305638 C16.8901233,4.48294527 15.7666233,3.23072305 14.2388733,2.76561194 C7.95724827,0.854056382 4.76262327,9.45094527 4.89912327,14.1812786 C4.92012327,14.8968342 5.06449827,15.7171675 5.69449827,16.087723 C6.67624827,16.6601675 7.82862327,15.7018342 8.55049827,14.8355008 C9.14112327,14.1173897 9.73699827,13.4018342 10.3276233,12.683723 C10.4746233,12.5125008 10.6268733,12.3310564 10.8079983,12.200723" id="Fill-6" transform="translate(14.000443, 13.124602) rotate(-67.000000) translate(-14.000443, -13.124602) "></path>
            </g>
            <path d="M43,313 C30.9149076,314.638248 21.4292402,324.20257 15.612731,334.37861 C12.7163039,339.450877 11.8489528,345.295012 11,351" id="Stroke-9" stroke="#6D4144"></path>
            <g id="Group-13" transform="translate(0.000000, 347.000000)" fill="#6D4144">
                <path d="M12.0463714,10.15448 C11.9589429,10.08948 11.8612286,10.03488 11.7558,9.99848 C11.0332286,9.76448 10.3826571,10.49768 10.0303714,11.17628 C9.1278,12.91568 8.69065714,14.86308 7.95265714,16.68048 C7.18637143,18.56548 4.94665714,22.30168 2.49351429,21.87788 C0.0275142857,21.44888 -0.198771429,18.11048 0.104657143,16.12928 C0.798942857,11.62868 2.55008571,7.29708 5.17294286,3.59468 C6.08837143,2.30248 7.18894286,1.03108 8.68551429,0.55788 C14.8389429,-1.38952 17.9683714,7.35688 17.8346571,12.16948 C17.8140857,12.90008 17.6726571,13.73208 17.0555143,14.10908 C16.0938,14.69148 14.9649429,13.71908 14.2603714,12.83508 C13.6792286,12.10448 13.0955143,11.37648 12.5169429,10.64588 C12.3755143,10.47168 12.2238,10.28708 12.0463714,10.15448" id="Fill-11"></path>
            </g>
            <path d="M158.051751,10.5155269 C160.427082,16.2527584 160.419328,22.6605417 160.370219,28.8715607 C160.240985,45.8606007 160.830294,62.8392846 160.995715,79.8257356 C161.066548,87.1178197 160.244427,94.2507023 159.628242,101.465011 C165.959977,87.113625 174.306208,73.6648888 184.433742,61.7230497 C195.44449,48.7370358 210.495004,36.7883431 227.391385,38.0986436 C230.420565,38.3326258 233.746218,39.2243581 235.329126,41.8371597 C237.837545,45.968246 234.465487,51.1106556 231.150146,54.6151895 C220.923118,65.4277684 209.45606,75.047038 199.860648,86.4341734 C190.265236,97.8187089 182.456397,111.483271 181.430342,126.390539 C192.214224,114.972206 206.509376,106.972614 221.825427,103.785256 C229.657469,102.15518 238.74501,102.103184 244.55588,107.643363 C245.646385,108.678084 246.60541,109.944188 246.899305,111.426076 C247.713961,115.520765 243.429283,118.650927 239.685989,120.444791 C222.27916,128.787557 202.951701,134.135351 188.496711,146.988775 C196.67163,145.907257 204.985763,144.82574 213.119434,146.182836 C221.250527,147.542533 229.322326,151.723016 233.439433,158.924469 C234.586654,160.931517 235.414201,163.325935 234.759382,165.548766 C233.483259,169.895636 227.855429,170.784768 223.356774,170.776969 C209.791203,170.750971 196.166337,169.942432 182.685841,171.499714 C172.438189,172.685224 164.289049,176.69412 154.740042,179.704691 C152.145763,180.524131 147.685513,181.402701 144.000337,180.801027 C140.314836,181.40286 135.853385,180.524205 133.25738,179.704691 C123.710951,176.69412 115.561811,172.685224 105.314159,171.499714 C91.8336627,169.942432 78.2087968,170.750971 64.6406475,170.776969 C60.1445706,170.784768 54.5167405,169.895636 53.2406178,165.548766 C52.5857993,163.325935 53.4133455,160.931517 54.560567,158.924469 C58.677674,151.723016 66.7494725,147.542533 74.8805656,146.182836 C83.0142367,144.82574 91.3283697,145.907257 99.5007112,146.988775 C85.048299,134.135351 65.7182622,128.787557 48.3140107,120.444791 C44.5707173,118.650927 40.2860386,115.520765 41.1006947,111.426076 C41.3945896,109.944188 42.3536152,108.678084 43.4415421,107.643363 C49.25499,102.103184 58.3425307,102.15518 66.1745728,103.785256 C81.4906235,106.972614 95.7857761,114.972206 106.569658,126.390539 C105.541025,111.483271 97.7347636,97.8187089 88.1393519,86.4341734 C78.5413621,75.047038 67.0768818,65.4277684 56.8498538,54.6151895 C53.5345127,51.1106556 50.1624551,45.968246 52.6682961,41.8371597 C54.2537819,39.2243581 57.5794351,38.3326258 60.6086153,38.0986436 C77.5024178,36.7883431 92.5529319,48.7370358 103.566258,61.7230497 C113.27748,73.1739961 121.350837,86.010498 127.580869,99.7001788 C126.121216,75.233208 127.812117,49.9988488 128.332966,26.8314261 C128.462201,21.0812496 128.725839,15.167966 131.064985,9.91487817 C133.406716,4.66437937 138.315045,0.16210255 144.055645,0.00417334581 C150.253736,-0.164111872 155.67125,4.78088453 158.051751,10.5155269 Z" id="Combined-Shape" fill="#00A46F"></path>
            <path d="M121.955479,407 C123.398479,426.306392 123.407479,445.693608 121.982479,465" id="Stroke-18" stroke="#6D4144"></path>
            <path d="M116.311273,462.300761 C118.794722,462.008767 123.517476,461.389839 125.278992,463.685863 C127.534047,466.623276 124.021516,469.43341 121.307048,470.232027 C116.14851,471.7494 107.545695,472.92736 102.337278,470.983227 C97.9978051,469.368523 100.502256,466.620781 103.395238,465.392907 C104.888982,464.756509 110.884963,462.937159 116.311273,462.300761" id="Fill-20" fill="#6D4144"></path>
            <path d="M176.044521,407 C174.601521,426.306392 174.592521,445.693608 176.017521,465" id="Stroke-22" stroke="#6D4144"></path>
            <path d="M181.691962,462.300761 C179.206004,462.008767 174.483471,461.389839 172.722037,463.685863 C170.464462,466.623276 173.979454,469.43341 176.693795,470.232027 C181.852092,471.7494 190.454504,472.92736 195.662678,470.983227 C200.001948,469.368523 197.497614,466.620781 194.607393,465.392907 C193.111093,464.756509 187.115393,462.937159 181.691962,462.300761" id="Fill-24" fill="#6D4144"></path>
            <path d="M122.834956,171.76868 C122.946231,171.753114 123.057506,171.734954 123.168782,171.711605 C124.382458,171.446981 125.370996,170.606411 126.356946,169.854049 C135.432347,162.932317 148.676687,162.055426 158.580183,167.721491 C160.847092,169.018667 163.049306,170.660892 165.642278,170.96962 C167.549484,171.197923 169.459277,170.67127 171.327666,170.227635 C177.178673,168.842251 183.335039,168.242956 189.19381,169.594613 C195.05258,170.943677 200.600814,174.43308 203.488795,179.717776 C203.954598,180.568723 204.366058,181.479341 205.10358,182.104579 C206.079179,182.937367 207.430008,183.111188 208.69544,183.305765 C217.312801,184.64445 225.715375,188.432204 231.411114,195.21903 C238.949364,204.200677 238.15491,212.751662 237.363045,223.660912 C237.27506,224.859503 237.187075,226.081443 237.453618,227.256684 C238.033284,229.832876 240.155277,231.716376 242.031429,233.571338 C257.351181,248.73792 261.481304,274.079552 251.766718,293.345211 C251.078364,294.715029 250.312376,296.09263 250.110528,297.615515 C249.833634,299.688402 250.635851,301.735346 251.342319,303.701865 C255.982237,316.611362 257.444342,331.285017 254.618469,344.778243 C253.399617,350.602564 250.990379,356.185609 247.582251,361.057803 C246.668759,362.365356 234.788188,373.653382 234.604454,373.015172 C237.727924,383.997064 234.296507,396.592644 226.036262,404.456126 C217.776017,412.319607 205.051824,415.105941 194.273653,411.414178 C194.967183,418.815865 188.947969,425.66236 181.847057,427.797512 C174.743557,429.932664 167.000871,428.220391 160.223433,425.205754 C157.770202,424.113532 155.151353,422.81895 152.52474,423.368953 C150.193136,423.859285 148.428259,425.683115 146.541755,427.138547 C140.087792,432.122297 131.110728,433.108151 123.280057,430.853659 C115.449386,428.599167 108.700414,423.418246 103.366966,417.246282 C101.439058,415.017733 99.5370283,412.550504 96.7887889,411.50498 C94.5606965,410.659222 92.0997025,410.874553 89.7189302,410.858987 C69.2132344,410.726675 51.6628017,389.196146 55.6143663,369.022464 C56.1552156,366.267262 57.0143639,363.335644 55.9507798,360.736103 C55.0761047,358.60614 53.0964407,357.184435 51.3263882,355.716032 C39.4251143,345.847116 34.164125,328.628401 38.5116223,313.770546 C39.4173509,310.683267 40.7008977,307.671224 41.0114333,304.469793 C41.5186413,299.244768 39.4018241,294.177998 38.2269647,289.061936 C34.3970266,272.408789 41.459122,253.76318 55.3478233,243.85535 C48.9197379,235.600121 47.1988536,223.899593 50.987387,214.13964 C54.7733326,204.377093 63.9289549,196.915736 74.2335587,195.187897 C70.664988,185.453888 78.3636812,174.482373 88.0446261,170.829525 C94.3847264,168.434938 100.949965,169.22881 107.497089,170.066785 C111.808357,170.616788 115.884136,170.733534 120.216106,171.553349 C121.08043,171.714199 121.970632,171.877643 122.834956,171.76868" id="Fill-26" fill="#FBC04A"></path>
            <g id="Group-34" transform="translate(36.000000, 192.000000)" fill="#FBC04A">
                <path d="M214.535076,106.12448 C214.737331,104.60592 215.502273,103.227297 216.197203,101.859039 C224.484506,85.4762215 222.684948,64.7165333 212.499552,49.5490817 C211.926494,56.0508989 210.23325,62.4386946 207.27461,68.2848882 C206.55375,69.7153398 205.752506,71.1509742 205.539878,72.7395011 C205.252052,74.9007269 206.089599,77.0334473 206.82861,79.0858344 C211.685343,92.5455548 213.212634,107.847759 210.25918,121.919049 C208.983413,127.990695 206.462994,133.818748 202.897587,138.897888 C201.940762,140.260963 189.512401,152.031092 189.320517,151.365103 C192.587727,162.81649 188.99639,175.949695 180.356436,184.151469 C171.716483,192.350652 158.406494,195.2582 147.132029,191.407383 C147.855483,199.124566 141.559622,206.266458 134.13061,208.492469 C126.699006,210.715888 118.603587,208.933006 111.514262,205.787049 C108.941983,204.649426 106.206343,203.301899 103.455145,203.874598 C101.02289,204.385103 99.1714709,206.287189 97.2007733,207.803157 C90.4485407,213.001501 81.0566105,214.030286 72.86525,211.679888 C64.6738895,209.32949 57.6130872,203.926426 52.0329012,197.489394 C50.0181221,195.16491 48.0266802,192.591652 45.1510174,191.500673 C42.8224826,190.619598 40.2476105,190.845049 37.7557151,190.829501 C31.050157,190.785447 24.6479826,188.562028 19.1378081,184.879652 C20.0505523,202.550394 35.7902035,219.122383 53.8194942,219.238996 C56.2024826,219.254544 58.6736337,219.039458 60.9010407,219.884254 C63.6548314,220.928587 65.5658895,223.393006 67.4950988,225.619017 C72.8393198,231.783953 79.6045174,236.958974 87.4484128,239.210899 C95.2974942,241.462824 104.290099,240.478092 110.759692,235.500017 C112.647413,234.046243 114.418448,232.22449 116.749576,231.737308 C119.38668,231.18534 122.005634,232.478447 124.469006,233.569426 C131.260134,236.58063 139.015866,238.290953 146.131122,236.158232 C153.248971,234.025512 159.280343,227.186813 158.588006,219.793555 C169.387948,223.483705 182.13525,220.697953 190.41218,212.843426 C198.68911,204.986308 202.130052,192.407662 199.000273,181.438275 C199.181785,182.075759 211.086355,170.800587 212.001692,169.497114 C215.416703,164.630469 217.830808,159.051189 219.052122,153.233501 C221.883703,139.755641 220.421238,125.098695 215.769355,112.203899 C215.058866,110.239619 214.260215,108.195006 214.535076,106.12448" id="Fill-28"></path>
                <path d="M197.087919,5.95451398 C197.505395,6.36654624 197.881384,6.81485806 198.283302,7.23984731 C197.575407,6.10999785 196.756012,4.98014839 195.799186,3.84511613 C194.881256,2.75672903 193.877756,1.77458925 192.832767,0.839094624 C193.768849,2.80596559 195.506174,4.39190108 197.087919,5.95451398" id="Fill-30"></path>
                <path d="M2.43381163,138.55997 C2.12783488,137.81883 1.66627674,137.178755 1.15545116,136.572368 C1.3940093,139.223368 1.90483488,141.851045 2.64384651,144.413938 C3.01205581,142.413378 3.19097442,140.405045 2.43381163,138.55997" id="Fill-32"></path>
            </g>
            <path d="M82.1450633,248.869207 C85.0277838,243.532287 93.0353407,239.414407 98.8541653,239.617142 C101.716549,239.717192 101.714007,235.10959 98.8541653,235.009539 C91.4185768,234.751513 81.9696597,239.756686 78.301436,246.544343 C76.9032912,249.135132 80.7443764,251.459996 82.1450633,248.869207" id="Fill-35" fill="#000100"></path>
            <path d="M94,294.501337 C94,298.090311 87.2843266,301 79.0013127,301 C70.7182988,301 64,298.090311 64,294.501337 C64.0026254,290.909689 70.7182988,288 79.0013127,288 C87.2843266,288 94,290.909689 94,294.501337" id="Fill-37" fill="#D66580"></path>
            <path d="M230,294.501337 C230,298.090311 223.283739,301 215,301 C206.716261,301 200,298.090311 200,294.501337 C200,290.909689 206.716261,288 215,288 C223.283739,288 230,290.909689 230,294.501337" id="Fill-39" fill="#D66580"></path>
            <path d="M218.69689,246.544273 C215.036153,239.763114 205.576707,234.749006 198.145919,235.009718 C195.291053,235.10979 195.278342,239.718345 198.145919,239.618273 C203.964966,239.412863 211.970286,243.531595 214.855659,248.869619 C216.253857,251.45831 220.100173,249.138232 218.69689,246.544273" id="Fill-41" fill="#000100"></path>
            <path d="M170,308 C170,320.149528 160.372828,330 148.498716,330 C136.624604,330 127,320.149528 127,308 L170,308 Z" id="Fill-43" fill="#FFFFFA" transform="translate(148.500000, 319.000000) rotate(-5.000000) translate(-148.500000, -319.000000) "></path>
            <path d="M116.428186,262.17683 C115.56684,277.997482 92.4357704,278.031066 91.5718137,262.17683 C91.4125951,259.283439 86.8448484,259.265355 87.004067,262.17683 C87.4973836,271.270347 94.3933761,279.04117 103.998695,279 C113.609234,278.955918 120.497396,271.332348 120.995933,262.17683 C121.155152,259.270522 116.587405,259.278272 116.428186,262.17683" id="Fill-45" fill="#000100"></path>
            <path d="M204.428188,262.17683 C203.566842,277.997482 180.433161,278.031066 179.571814,262.17683 C179.412595,259.283439 174.844848,259.265355 175.004067,262.17683 C175.497384,271.270347 182.393377,279.04117 191.998696,279 C201.606626,278.955918 208.497398,271.332348 208.995935,262.17683 C209.155154,259.270522 204.584797,259.278272 204.428188,262.17683" id="Fill-47" fill="#000100"></path>
            <path d="M64.851931,338.554939 C69.2708331,335.474756 72.5875377,329.299128 71.9125681,323.777181 C71.5358997,320.666476 64.9530501,319.135287 62.2405318,319.008111 C57.9278046,318.804631 54.9599608,322.459646 55.0004084,326.580123 C55.0484399,331.560303 56.7649357,335.566322 60.0968081,339.218794 C60.3774134,339.526557 60.6908825,339.836865 61.0953586,339.948779 C61.4543312,340.053063 61.8461675,339.981845 62.2051401,339.880105 C63.0697079,339.633385 63.9646114,339.17301 64.851931,338.554939" id="Fill-49" fill="#D5981E"></path>
            <path d="M88.7779726,388.735253 C92.3796069,384.667127 94.1561749,377.844327 92.1805087,372.618625 C91.0676012,369.6723 84.2497662,369.759182 81.5568362,370.285586 C77.2787787,371.123742 75.2367465,375.403963 76.2603152,379.415871 C77.4957446,384.263381 80.1325187,387.759107 84.272739,390.524002 C84.622437,390.759095 85.0027655,390.983966 85.4264872,390.999298 C85.8042632,391.012075 86.1692764,390.848532 86.4985541,390.661991 C87.2872891,390.214804 88.0556037,389.550412 88.7779726,388.735253" id="Fill-51" fill="#D5981E"></path>
            <path d="M110.403654,348.407937 C114.698304,345.138116 117.750699,338.824766 116.838023,333.340315 C116.323375,330.25102 109.663372,329.010216 106.940555,329 C102.610412,328.98479 99.7937916,332.768223 100.01182,336.879655 C100.278017,341.853038 102.171821,345.776316 105.670413,349.277516 C105.964498,349.572461 106.29154,349.869949 106.699709,349.966569 C107.067315,350.050476 107.452667,349.964026 107.812667,349.844523 C108.664499,349.562291 109.541682,349.063936 110.403654,348.407937" id="Fill-53" fill="#D5981E"></path>
            <path d="M148.366359,373.856956 C152.109976,369.92234 154.128518,363.174 152.339646,357.883587 C151.331651,354.9039 144.515563,354.748149 141.808011,355.177102 C137.502979,355.861383 135.313461,360.061542 136.19131,364.103396 C137.255446,368.990389 139.76395,372.575206 143.803586,375.480847 C144.145539,375.728516 144.515563,375.968525 144.934072,375.996612 C145.316855,376.024698 145.684327,375.874054 146.021176,375.697877 C146.82502,375.281691 147.616104,374.645922 148.366359,373.856956" id="Fill-55" fill="#D5981E"></path>
            <path d="M148.366359,195.856913 C152.109976,191.922305 154.128518,185.173981 152.339646,179.88358 C151.331651,176.9039 144.515563,176.74815 141.808011,177.177101 C137.502979,177.861381 135.313461,182.064083 136.19131,186.105929 C137.255446,190.990357 139.76395,194.575165 143.803586,197.483353 C144.145539,197.728468 144.515563,197.968477 144.934072,197.996563 C145.316855,198.024649 145.684327,197.876559 146.021176,197.700382 C146.82502,197.281644 147.616104,196.645877 148.366359,195.856913" id="Fill-57" fill="#D5981E"></path>
            <path d="M148.365583,245.856956 C152.108965,241.92234 154.12738,235.174 152.341172,229.883587 C151.330689,226.9039 144.515028,226.748149 141.807647,227.177102 C137.502885,227.861383 135.313504,232.061542 136.191298,236.103396 C137.255367,240.990389 139.763714,244.575206 143.803097,247.480847 C144.145028,247.728516 144.515028,247.968525 144.936063,247.996612 C145.31627,248.024698 145.683719,247.874054 146.020547,247.697877 C146.82434,247.281691 147.615375,246.645922 148.365583,245.856956" id="Fill-59" fill="#D5981E"></path>
            <path d="M103.826832,218.29236 C108.018651,214.87635 110.864008,208.461475 109.761432,203.008068 C109.141551,199.93544 102.429558,198.9231 99.7010645,199.004494 C95.3644362,199.139303 92.6715095,203.015699 93.03226,207.121016 C93.466685,212.083514 95.4965421,215.942105 99.1167502,219.322505 C99.4241503,219.609928 99.7594959,219.892264 100.173597,219.976201 C100.541969,220.047421 100.925584,219.948222 101.281254,219.8185 C102.127239,219.505642 102.988468,218.97658 103.826832,218.29236" id="Fill-61" fill="#D5981E"></path>
            <path d="M126.532897,407.808681 C130.218779,403.81882 132.140848,397.039632 130.28004,391.775161 C129.230942,388.807032 122.41053,388.748282 119.704828,389.218279 C115.413993,389.961588 113.282614,394.19411 114.216847,398.227395 C115.347626,403.098499 117.910386,406.649016 121.991912,409.499647 C122.333954,409.739754 122.711731,409.974752 123.130349,409.997741 C123.510679,410.02073 123.878246,409.864916 124.21263,409.683558 C125.009025,409.256985 125.792658,408.608186 126.532897,407.808681" id="Fill-63" fill="#D5981E"></path>
            <path d="M231.1481,338.554939 C226.726683,335.474756 223.412517,329.299128 224.087484,323.777181 C224.464152,320.666476 231.046981,319.135287 233.759491,319.008111 C238.072204,318.804631 241.040039,322.459646 240.999592,326.580123 C240.95156,331.560303 239.23507,335.566322 235.903208,339.218794 C235.622603,339.526557 235.309135,339.836865 234.90466,339.948779 C234.543161,340.053063 234.153854,339.981845 233.792354,339.880105 C232.930317,339.633385 232.035416,339.17301 231.1481,338.554939" id="Fill-65" fill="#D5981E"></path>
            <path d="M207.222027,388.735253 C203.620393,384.667127 201.843825,377.844327 203.819491,372.618625 C204.932399,369.6723 211.750234,369.759182 214.443164,370.285586 C218.721221,371.123742 220.763253,375.403963 219.739685,379.415871 C218.504255,384.263381 215.867481,387.759107 211.727261,390.524002 C211.377563,390.759095 210.997234,390.983966 210.573513,390.999298 C210.195737,391.012075 209.830724,390.848532 209.501446,390.661991 C208.712711,390.214804 207.944396,389.550412 207.222027,388.735253" id="Fill-67" fill="#D5981E"></path>
            <path d="M180.598287,351.407937 C176.303499,348.138116 173.251005,341.824766 174.161176,336.340315 C174.67584,333.25102 181.336058,332.010216 184.061499,332 C188.389246,331.98479 191.208493,335.768223 190.987922,339.879655 C190.721716,344.853038 188.830387,348.776316 185.331681,352.277516 C185.035052,352.575004 184.707999,352.869949 184.302352,352.966569 C183.932199,353.050476 183.54937,352.964026 183.189358,352.844523 C182.337499,352.564834 181.457752,352.063936 180.598287,351.407937" id="Fill-69" fill="#D5981E"></path>
            <path d="M185.597226,218.409215 C181.302004,215.136635 178.249201,208.825413 179.161999,203.3406 C179.67418,200.248559 186.335071,199.007674 189.060788,199 C193.391508,198.984789 196.208504,202.765928 195.987911,206.880174 C195.721678,211.851342 193.830158,215.774877 190.331098,219.278851 C190.036975,219.573816 189.707353,219.86878 189.301665,219.965406 C188.93401,220.051862 188.548606,219.962864 188.188558,219.845895 C187.336613,219.563645 186.456777,219.062714 185.597226,218.409215" id="Fill-71" fill="#D5981E"></path>
            <path d="M168.469355,405.808681 C164.78113,401.81882 162.859169,395.039632 164.719872,389.775161 C165.771463,386.807032 172.588937,386.748282 175.294486,387.218279 C179.587631,387.961588 181.718889,392.19411 180.782156,396.227395 C179.651441,401.098499 177.088826,404.649016 173.010083,407.499647 C172.665509,407.739754 172.287753,407.974752 171.869158,407.997741 C171.491402,408.02073 171.121304,407.864916 170.786939,407.683558 C169.990588,407.256985 169.207,406.608186 168.469355,405.808681" id="Fill-73" fill="#D5981E"></path>
            <path d="M132,266.5 C132,289.418649 113.642521,308 90.9974264,308 C68.3574791,308 50,289.418649 50,266.5 C50,243.581351 68.3574791,225 90.9974264,225 C113.642521,225 132,243.581351 132,266.5" id="Fill-77" fill="#000000"></path>
            <path d="M132,266.5 C132,289.418649 113.642521,308 90.9974264,308 C68.3574791,308 50,289.418649 50,266.5 C50,243.581351 68.3574791,225 90.9974264,225 C113.642521,225 132,243.581351 132,266.5 Z" id="Stroke-79" stroke="#8E00CC" stroke-width="5"></path>
            <path d="M80,255.5 C80,259.64183 76.64446,263 72.5,263 C68.3581697,263 65,259.64183 65,255.5 C65,251.35817 68.3581697,248 72.5,248 C76.64446,248 80,251.35817 80,255.5" id="Fill-81" fill="#FFFFFA"></path>
            <path d="M244,266.5 C244,289.418649 225.642521,308 202.997426,308 C180.357479,308 162,289.418649 162,266.5 C162,243.581351 180.357479,225 202.997426,225 C225.642521,225 244,243.581351 244,266.5" id="Fill-83" fill="#000000"></path>
            <path d="M244,266.5 C244,289.418649 225.642521,308 202.997426,308 C180.357479,308 162,289.418649 162,266.5 C162,243.581351 180.357479,225 202.997426,225 C225.642521,225 244,243.581351 244,266.5 Z" id="Stroke-85" stroke="#8E00CC" stroke-width="5"></path>
            <path d="M192,255.5 C192,259.64183 188.643872,263 184.498685,263 C180.356128,263 177,259.64183 177,255.5 C177,251.35817 180.356128,248 184.498685,248 C188.643872,248 192,251.35817 192,255.5" id="Fill-87" fill="#FFFFFA"></path>
            <line x1="131" y1="258.5" x2="160" y2="258.5" id="Stroke-89" stroke="#009DCC" stroke-width="5"></line>
        </g>
    </g>
</svg>