<?xml version="1.0" encoding="UTF-8"?>
<svg width="600px" height="600px" viewBox="0 0 600 600" version="1.1" xmlns="http://www.w3.org/2000/svg" xmlns:xlink="http://www.w3.org/1999/xlink">
    <!-- Generator: Sketch 61.2 (89653) - https://sketch.com -->
    <title>Path 2</title>
    <desc>Created with Sketch.</desc>
    <g id="Page-1" stroke="none" stroke-width="1" fill="none" fill-rule="evenodd">
        <g id="Artboard" stroke="#979797">
            <path d="M316.1875,0.5 C329.419271,-0.166666667 336.035156,6.87369792 336.035156,21.6210938 C336.035156,21.6210938 373.378018,45.1211219 378.308594,78.25 C381.595644,100.335919 372.991478,127.645815 352.496094,160.179688 L398.757813,187.558594 C434.763021,196.610677 454.440104,210.789063 457.789063,230.09375 C461.138021,249.398438 464.949219,293.542969 469.222656,362.527344 C506.683594,416.014323 533.216146,442.757813 548.820313,442.757813 C564.424479,442.757813 581.484375,448.71875 600,460.640625 C603.651042,490.226563 597.40625,506.800781 581.265625,510.363281 C557.054688,515.707031 603.179688,590.867188 548.820313,600 C512.580729,606.088542 431.933594,603.748698 306.878906,592.980469 L117.246094,617.445312 C34.1158854,595.40625 -4.96614583,569.359375 1.71029857e-13,539.304688 C4.96614583,509.25 4.96614583,392.001302 2.84217094e-14,187.558594 L2.84217094e-14,-0.5 L316.1875,0.5 Z" id="Path-2"></path>
        </g>
    </g>
</svg>