<svg width="397" height="264" viewBox="0 0 397 264" fill="none" xmlns="http://www.w3.org/2000/svg">
<path d="M364.987 231.911L3.97321 228.558V238.467C3.97321 241.157 5.54773 243.441 7.6855 243.86L109.774 263.393C110.99 263.623 112.219 263.69 113.435 263.582L361.07 241.319C363.285 241.116 364.987 238.832 364.987 236.061V231.911Z" fill="url(#paint0_linear)"/>
<path d="M233.982 215.838L7.71104 233.979C3.66593 234.303 0.376068 230.856 0.376068 226.274V42.8018C0.376068 38.2194 3.66593 34.5157 7.71104 34.5157H233.982C237.323 34.5157 240.011 37.868 240.011 42.0178V207.877C240.011 211.999 237.323 215.582 233.982 215.838Z" fill="url(#paint1_linear)"/>
<path d="M237.591 215.838L11.3209 233.979C7.27576 234.303 3.9859 230.856 3.9859 226.274V42.8018C3.9859 38.2194 7.27576 34.5157 11.3209 34.5157H237.591C240.933 34.5157 243.621 37.868 243.621 42.0178V207.877C243.621 211.999 240.92 215.582 237.591 215.838Z" fill="url(#paint2_linear)"/>
<path d="M230.538 204.146L19.7952 219.907C16.5053 220.15 13.8171 217.325 13.8171 213.581V52.9534C13.8171 49.2091 16.4925 46.1677 19.7952 46.1542L230.538 45.1674C233.29 45.1539 235.518 47.8979 235.518 51.3043V197.603C235.518 201.023 233.29 203.943 230.538 204.146Z" fill="url(#paint3_linear)"/>
<path d="M132.444 39.5306C132.444 41.2338 131.279 42.6261 129.845 42.6261C128.412 42.6261 127.234 41.2473 127.234 39.5441C127.234 37.841 128.399 36.4487 129.845 36.4487C131.279 36.4487 132.444 37.8274 132.444 39.5306Z" fill="white"/>
<path opacity="0.48" d="M183.072 165.527C165.624 154.875 151.914 168.365 138.678 155.064C130.652 146.994 134.595 140.979 124.712 128.921C113.78 115.566 106.65 120.054 95.6668 108.037C81.7777 92.8298 88.7286 81.0021 76.7469 70.0935C62.2305 56.86 46.5621 69.1067 32.737 56.4139C26.7717 50.9393 23.5075 42.9776 21.7921 34.5157H8.27428C5.9061 34.5157 3.97314 36.692 3.97314 39.3819V229.559C3.97314 232.249 5.8933 234.276 8.27428 234.073L238.884 215.514C240.011 215.419 241.022 214.676 241.662 213.581C224.778 212.878 214.409 206.471 207.778 199.834C194.811 186.857 197.064 174.056 183.072 165.527Z" fill="white"/>
<path d="M246.603 215.014L3.97321 234.114L109.774 254.336C110.99 254.566 112.219 254.633 113.435 254.525L365 231.911L250.469 215.149C249.189 214.96 247.896 214.919 246.603 215.014Z" fill="url(#paint4_linear)"/>
<path opacity="0.3" d="M39.3808 234.587L241.381 218.461L303.888 227.545L103.642 244.779L39.3808 234.587Z" fill="url(#paint5_linear)"/>
<g opacity="0.75">
<path opacity="0.75" d="M56.8157 58.7659L33.6075 58.8605V50.9258H56.8157V58.7659Z" fill="white"/>
<path opacity="0.75" d="M178.413 58.3198L71.5625 58.7118V50.9258H178.413V58.3198Z" fill="white"/>
<path opacity="0.75" d="M93.9643 71.7967L71.5625 72.0265V64.227L93.9643 64.0918V71.7967Z" fill="white"/>
<path opacity="0.75" d="M211.465 70.6207L108.186 71.6615V63.9972L211.465 63.3483V70.6207Z" fill="white"/>
<path opacity="0.75" d="M93.9643 84.9627L71.5625 85.3277V77.5416L93.9643 77.2578V84.9627Z" fill="white"/>
<path opacity="0.75" d="M211.465 83.0567L108.186 84.7329V77.082L211.465 75.7843V83.0567Z" fill="white"/>
<path opacity="0.75" d="M56.8157 98.9668L33.6075 99.4939V91.5592L56.8157 91.1266V98.9668Z" fill="white"/>
<path opacity="0.75" d="M178.413 96.2227L71.5625 98.6423V90.8428L178.413 88.8287V96.2227Z" fill="white"/>
<path opacity="0.75" d="M93.9643 111.295L71.5625 111.943V104.157L93.9643 103.59V111.295Z" fill="white"/>
<path opacity="0.75" d="M211.465 107.902L108.186 110.889V103.238L211.465 100.629V107.902Z" fill="white"/>
<path opacity="0.75" d="M93.9643 124.461L71.5625 125.258V117.459L93.9643 116.756V124.461Z" fill="white"/>
<path opacity="0.75" d="M211.465 120.338L108.186 123.96V116.31L211.465 113.052V120.338Z" fill="white"/>
<path opacity="0.75" d="M93.9643 137.627L71.5625 138.559V130.773L93.9643 129.922V137.627Z" fill="white"/>
<path opacity="0.75" d="M211.465 132.76L108.186 137.045V129.381L211.465 125.488V132.76Z" fill="white"/>
<path opacity="0.75" d="M130.165 149.062L108.532 150.103V142.452L130.165 141.493V149.062Z" fill="white"/>
<path opacity="0.75" d="M227.235 144.426L143.901 148.413V140.884L227.235 137.208V144.426Z" fill="white"/>
<path opacity="0.75" d="M56.8157 165.973L33.6075 167.23V159.295L56.8157 158.133V165.973Z" fill="white"/>
<path opacity="0.75" d="M178.413 159.403L71.5625 165.175V157.389L178.413 151.996V159.403Z" fill="white"/>
<path opacity="0.75" d="M93.9643 177.125L71.5625 178.476V170.69L93.9643 169.42V177.125Z" fill="white"/>
<path opacity="0.75" d="M211.465 170.041L108.186 176.273V168.609L211.465 162.755V170.041Z" fill="white"/>
<path opacity="0.75" d="M93.9643 190.29L71.5625 191.791V184.005L93.9643 182.586V190.29Z" fill="white"/>
<path opacity="0.75" d="M211.465 182.464L108.186 189.344V181.693L211.465 175.191V182.464Z" fill="white"/>
<path opacity="0.75" d="M56.8157 206.173L33.6075 207.863V199.928L56.8157 198.333V206.173Z" fill="white"/>
<path opacity="0.75" d="M178.413 197.306L71.5625 205.092V197.306L178.413 189.898V197.306Z" fill="white"/>
</g>
<path d="M386.793 6.59185L197.001 0.00665694C190.642 -0.214148 185.452 5.08518 185.452 11.8522V207.187C185.452 213.954 190.63 219.201 197.001 218.916L386.793 210.356C392.279 210.109 396.719 204.849 396.719 198.602V18.2426C396.719 11.9951 392.291 6.78668 386.793 6.59185Z" fill="url(#paint6_linear)"/>
<path opacity="0.74" d="M197.001 215.019C192.672 215.214 189.154 211.642 189.154 207.044V11.9561C189.154 7.35817 192.672 3.74735 197.001 3.89023L386.793 10.2027C390.532 10.3325 393.558 13.8784 393.558 18.1257V198.706C393.558 202.966 390.532 206.538 386.793 206.706L197.001 215.019Z" fill="white"/>
<path d="M386.793 6.59185L197.001 0.00665694C190.642 -0.214148 185.452 5.08518 185.452 11.8522V20.6325L396.719 26.3474V18.2426C396.719 11.9951 392.291 6.78668 386.793 6.59185Z" fill="url(#paint7_linear)"/>
<path d="M205.981 11.2937C205.981 13.4888 204.308 15.2163 202.241 15.1643C200.175 15.0994 198.49 13.268 198.49 11.0729C198.49 8.86485 200.175 7.13738 202.241 7.20232C204.308 7.26726 205.981 9.09865 205.981 11.2937Z" fill="white"/>
<path d="M219.043 11.6963C219.043 13.8784 217.383 15.6059 215.341 15.541C213.287 15.489 211.626 13.6576 211.626 11.4626C211.626 9.26749 213.287 7.553 215.341 7.61794C217.395 7.68288 219.043 9.51427 219.043 11.6963Z" fill="white"/>
<path d="M231.995 12.086C231.995 14.2681 230.347 15.9826 228.318 15.9176C226.288 15.8527 224.64 14.0473 224.64 11.8652C224.64 9.68314 226.288 7.96865 228.318 8.03359C230.347 8.09854 231.995 9.91693 231.995 12.086Z" fill="white"/>
<path d="M299.167 45.0769L198.908 43.1676V49.3891L299.167 51.0647V45.0769Z" fill="white"/>
<path d="M374.53 46.5057V52.3245L385.132 52.5064V46.7005L374.53 46.5057Z" fill="white"/>
<path d="M220.101 64.6247L198.908 64.3779V57.9616L220.101 58.2473V64.6247Z" fill="white"/>
<path d="M333.324 65.8976L233.631 64.7676V58.4292L333.324 59.793V65.8976Z" fill="white"/>
<path d="M254.296 75.7429L233.631 75.6V69.2616L254.296 69.4564V75.7429Z" fill="white"/>
<path d="M364.751 76.5482L267.494 75.8468V69.5863L364.751 70.5215V76.5482Z" fill="white"/>
<path d="M254.296 86.4844L233.631 86.4195V80.0811L254.296 80.198V86.4844Z" fill="white"/>
<path d="M364.751 86.8481L267.494 86.5364V80.2759L364.751 80.8214V86.8481Z" fill="white"/>
<path d="M220.101 97.2519L198.908 97.2779V90.8486L220.101 90.8876V97.2519Z" fill="white"/>
<path d="M333.324 97.174L233.631 97.2519V90.9135L333.324 91.0694V97.174Z" fill="white"/>
<path d="M254.296 107.967L233.631 108.071V101.733L254.296 101.681V107.967Z" fill="white"/>
<path d="M364.751 107.448L267.494 107.916V101.655L364.751 101.421V107.448Z" fill="white"/>
<path d="M254.296 118.709L233.631 118.891V112.565L254.296 112.423V118.709Z" fill="white"/>
<path d="M364.751 117.748L267.494 118.605V112.345L364.751 111.721V117.748Z" fill="white"/>
<path d="M254.296 129.464L233.631 129.723V123.385L254.296 123.164V129.464Z" fill="white"/>
<path d="M364.751 128.048L267.494 129.295V123.034L364.751 122.021V128.048Z" fill="white"/>
<path d="M287.961 139.634L267.814 139.971V133.711L287.961 133.425V139.634Z" fill="white"/>
<path d="M379.843 138.101L300.815 139.426V133.243L379.843 132.1V138.101Z" fill="white"/>
<path d="M220.101 151.648L198.908 152.09V145.673L220.101 145.284V151.648Z" fill="white"/>
<path d="M333.324 149.297L233.631 151.375V145.037L333.324 143.192V149.297Z" fill="white"/>
<path d="M254.296 161.688L233.631 162.195V155.856L254.296 155.402V161.688Z" fill="white"/>
<path d="M364.751 158.948L267.494 161.363V155.103L364.751 152.921V158.948Z" fill="white"/>
<path d="M254.296 172.43L233.631 173.027V166.689L254.296 166.143V172.43Z" fill="white"/>
<path d="M364.751 169.247L267.494 172.053V165.793L364.751 163.221V169.247Z" fill="white"/>
<path d="M220.101 184.288L198.908 184.977V178.56L220.101 177.924V184.288Z" fill="white"/>
<path d="M333.324 180.586L233.631 183.847V177.508L333.324 174.482V180.586Z" fill="white"/>
<path d="M254.296 193.913L233.631 194.666V188.328L254.296 187.626V193.913Z" fill="white"/>
<path d="M364.751 189.847L267.494 193.432V187.172L364.751 183.821V189.847Z" fill="white"/>
<g opacity="0.5">
<path opacity="0.5" d="M313.017 81.6917C290.852 47.6357 252.475 58.4681 228.207 20.8273C223.828 14.0343 220.864 7.13737 218.822 0.759995L197.001 0.00665694C190.642 -0.214148 185.452 5.08518 185.452 11.8522V207.187C185.452 213.954 190.63 219.201 197.001 218.916L379.843 210.668C375.649 204.291 339.167 180.664 329.745 144.387C321.135 111.202 326.399 102.24 313.017 81.6917Z" fill="white"/>
</g>
<defs>
<linearGradient id="paint0_linear" x1="156.462" y1="246.598" x2="130.7" y2="256.844" gradientUnits="userSpaceOnUse">
<stop stop-color="#40447E"/>
<stop offset="0.9964" stop-color="#3C3B6B"/>
</linearGradient>
<linearGradient id="paint1_linear" x1="115.195" y1="127.535" x2="88.4846" y2="138.159" gradientUnits="userSpaceOnUse">
<stop stop-color="#40447E"/>
<stop offset="0.9964" stop-color="#3C3B6B"/>
</linearGradient>
<linearGradient id="paint2_linear" x1="3.97795" y1="134.258" x2="243.622" y2="134.258" gradientUnits="userSpaceOnUse">
<stop stop-color="#B2B8E3"/>
<stop offset="0.9964" stop-color="#3C3B6B"/>
</linearGradient>
<linearGradient id="paint3_linear" x1="19.3713" y1="215.839" x2="273.077" y2="20.1925" gradientUnits="userSpaceOnUse">
<stop stop-color="#E94BB4"/>
<stop offset="0.9964" stop-color="#6165D7"/>
</linearGradient>
<linearGradient id="paint4_linear" x1="3.97806" y1="234.773" x2="364.992" y2="234.773" gradientUnits="userSpaceOnUse">
<stop stop-color="#40447E"/>
<stop offset="0.9964" stop-color="#3C3B6B"/>
</linearGradient>
<linearGradient id="paint5_linear" x1="39.3815" y1="231.621" x2="303.894" y2="231.621" gradientUnits="userSpaceOnUse">
<stop stop-color="#40447E"/>
<stop offset="0.9964" stop-color="#3C3B6B"/>
</linearGradient>
<linearGradient id="paint6_linear" x1="361.918" y1="-44.3398" x2="137.716" y2="380.297" gradientUnits="userSpaceOnUse">
<stop offset="0.00359712" stop-color="#E38DDD"/>
<stop offset="1" stop-color="#9571F6"/>
</linearGradient>
<linearGradient id="paint7_linear" x1="272.955" y1="-57.9064" x2="312.54" y2="92.0398" gradientUnits="userSpaceOnUse">
<stop offset="0.00359712" stop-color="#E94BB4"/>
<stop offset="1" stop-color="#9571F6"/>
</linearGradient>
</defs>
</svg>
