<svg width="541" height="496" viewBox="0 0 541 496" fill="none" xmlns="http://www.w3.org/2000/svg">
<path d="M0 80C0 35.8172 35.8172 0 80 0H303C347.183 0 383 35.8172 383 80V256.487V416C383 460.183 347.183 496 303 496H80C35.8172 496 0 460.183 0 416V80Z" fill="#1E2345"/>
<path fill-rule="evenodd" clip-rule="evenodd" d="M471.746 292.915C509.363 292.915 540.184 266.058 540.184 233.281C540.184 200.503 509.363 173.647 471.746 173.647C455.856 173.647 442.839 162.304 442.839 148.459C442.839 134.614 455.856 123.271 471.746 123.271H475.191C491.751 123.271 505.247 111.511 505.247 97.0821C505.247 82.6533 491.751 70.8933 475.191 70.8933H464.662C458.249 70.8933 452.985 66.3061 452.985 60.718C452.985 55.13 458.249 50.5428 464.662 50.5428H472.416C476.819 50.5428 480.456 47.3734 480.456 43.5368C480.456 39.7003 476.819 36.5309 472.416 36.5309H420.249C413.261 36.5309 407.518 31.5267 407.518 25.4382C407.518 19.3497 413.261 14.3455 420.249 14.3455H435.851C440.254 14.3455 443.891 11.1761 443.891 7.33954C443.891 3.50296 440.254 0.333616 435.851 0.333616H207.179C201.436 0 196.65 4.1702 196.65 9.17443C196.65 14.2621 201.436 18.3489 207.179 18.3489H223.164C232.257 18.3489 239.723 24.8544 239.723 32.7777C239.723 40.7011 232.257 47.2066 223.164 47.2066H161.33C155.491 47.2066 150.801 51.3768 150.801 56.381C150.801 61.4687 155.587 65.5555 161.33 65.5555H171.476C179.899 65.5555 186.791 71.5605 186.791 78.9001C186.791 86.2396 179.899 92.2447 171.476 92.2447H157.692C136.06 92.2447 118.448 107.674 118.448 126.44C118.448 145.29 136.156 160.636 157.692 160.636H162.191C182.962 160.636 200 175.482 200 193.58C200 211.679 182.962 226.525 162.191 226.525H152.428C131.466 226.525 114.332 241.454 114.332 259.72C114.332 277.985 131.466 292.915 152.428 292.915C260.782 292.915 363.392 292.915 471.746 292.915ZM180.186 18.3489C174.347 18.3489 169.657 14.2621 169.657 9.17443C169.657 4.08679 174.347 0 180.186 0C186.025 0 190.715 4.08679 190.715 9.17443C190.811 14.2621 186.025 18.3489 180.186 18.3489ZM495.101 50.2926C490.602 50.2926 487.061 47.1232 487.061 43.2866C487.061 39.3666 490.698 36.2807 495.101 36.2807C499.6 36.2807 503.141 39.45 503.141 43.2866C503.141 47.2066 499.6 50.2926 495.101 50.2926Z" fill="#02A0AE"/>
<path fill-rule="evenodd" clip-rule="evenodd" d="M441.657 293C476.685 293 486.552 308.448 486.552 331.164C486.552 353.88 476.685 375.657 441.657 375.657C426.862 375.657 424.805 383.518 424.805 393.113C424.805 402.708 450.01 410.569 464.805 410.569H468.014C483.433 410.569 496 418.719 496 428.719C496 438.718 483.433 446.868 468.014 446.868H458.21C452.238 446.868 447.336 450.048 447.336 453.92C447.336 457.793 452.238 460.972 458.21 460.972H465.429C469.529 460.972 472.916 463.169 472.916 465.827C472.916 468.486 469.529 470.683 465.429 470.683H416.854C410.348 470.683 405 474.151 405 478.37C405 482.59 410.348 486.058 416.854 486.058H431.382C435.482 486.058 438.869 488.255 438.869 490.913C438.869 493.572 435.482 495.769 431.382 495.769H218.454C213.107 496 208.65 493.11 208.65 489.642C208.65 486.116 213.107 483.284 218.454 483.284H233.339C241.806 483.284 248.758 478.775 248.758 473.284C248.758 467.793 241.806 463.284 233.339 463.284H175.762C170.325 463.284 165.958 460.394 165.958 456.926C165.958 453.4 170.414 450.568 175.762 450.568H185.21C193.053 450.568 199.47 446.406 199.47 441.319C199.47 436.233 193.053 432.071 185.21 432.071H172.375C152.232 432.071 135.832 421.378 135.832 408.372C135.832 395.309 152.321 384.674 172.375 384.674H176.564C195.905 384.674 211.77 374.385 211.77 361.842C211.77 349.299 195.905 339.01 176.564 339.01H167.473C147.954 339.01 132 328.664 132 316.005C132 303.347 147.954 293 167.473 293C268.366 293 340.764 293 441.657 293ZM193.32 483.284C187.883 483.284 183.516 486.116 183.516 489.642C183.516 493.168 187.883 496 193.32 496C198.757 496 203.124 493.168 203.124 489.642C203.213 486.116 198.757 483.284 193.32 483.284ZM486.552 461.146C482.363 461.146 479.066 463.342 479.066 466.001C479.066 468.718 482.452 470.856 486.552 470.856C490.741 470.856 494.039 468.66 494.039 466.001C494.039 463.284 490.741 461.146 486.552 461.146Z" fill="#02A0AE"/>
<path fill-rule="evenodd" clip-rule="evenodd" d="M415.657 294.041C451.284 294.041 480.475 267.082 480.475 234.178C480.475 201.274 451.284 174.315 415.657 174.315C400.609 174.315 388.28 162.928 388.28 149.03C388.28 135.132 400.609 123.745 415.657 123.745H418.921C434.604 123.745 447.386 111.94 447.386 97.4555C447.386 82.9712 434.604 71.166 418.921 71.166H408.949C402.875 71.166 397.889 66.5611 397.889 60.9516C397.889 55.342 402.875 50.7372 408.949 50.7372H416.292C420.462 50.7372 423.907 47.5556 423.907 43.7043C423.907 39.853 420.462 36.6714 416.292 36.6714H366.885C360.267 36.6714 354.828 31.6479 354.828 25.536C354.828 19.4241 360.267 14.4006 366.885 14.4006H381.662C385.832 14.4006 389.277 11.2191 389.277 7.36777C389.277 3.51644 385.832 0.334899 381.662 0.334899H165.089C159.65 0 155.117 4.18623 155.117 9.20972C155.117 14.3169 159.65 18.4194 165.089 18.4194H180.228C188.84 18.4194 195.911 24.95 195.911 32.9038C195.911 40.8576 188.84 47.3882 180.228 47.3882H121.665C116.136 47.3882 111.694 51.5744 111.694 56.5979C111.694 61.7051 116.226 65.8076 121.665 65.8076H131.275C139.252 65.8076 145.78 71.8358 145.78 79.2036C145.78 86.5713 139.252 92.5995 131.275 92.5995H118.221C97.7328 92.5995 81.0524 108.089 81.0524 126.927C81.0524 145.848 97.8234 161.254 118.221 161.254H122.481C142.153 161.254 158.29 176.157 158.29 194.325C158.29 212.493 142.153 227.396 122.481 227.396H113.235C93.3813 227.396 77.1542 242.383 77.1542 260.719C77.1542 279.054 93.3813 294.041 113.235 294.041C215.855 294.041 313.037 294.041 415.657 294.041ZM139.524 18.4194C133.994 18.4194 129.552 14.3169 129.552 9.20972C129.552 4.10251 133.994 0 139.524 0C145.054 0 149.496 4.10251 149.496 9.20972C149.587 14.3169 145.054 18.4194 139.524 18.4194ZM437.777 50.486C433.516 50.486 430.162 47.3045 430.162 43.4531C430.162 39.5181 433.607 36.4202 437.777 36.4202C442.038 36.4202 445.392 39.6018 445.392 43.4531C445.392 47.3882 442.038 50.486 437.777 50.486Z" fill="#00C4D6"/>
</svg>
