<svg width="498" height="511" viewBox="0 0 498 511" fill="none" xmlns="http://www.w3.org/2000/svg">
<path fill-rule="evenodd" clip-rule="evenodd" d="M429.37 292.915C466.987 292.915 497.808 266.058 497.808 233.281C497.808 200.503 466.987 173.647 429.37 173.647C413.48 173.647 400.462 162.304 400.462 148.459C400.462 134.614 413.48 123.271 429.37 123.271H432.815C449.375 123.271 462.871 111.511 462.871 97.0821C462.871 82.6533 449.375 70.8933 432.815 70.8933H422.286C415.873 70.8933 410.609 66.3061 410.609 60.718C410.609 55.13 415.873 50.5428 422.286 50.5428H430.04C434.443 50.5428 438.08 47.3734 438.08 43.5368C438.08 39.7003 434.443 36.5309 430.04 36.5309H377.873C370.885 36.5309 365.142 31.5267 365.142 25.4382C365.142 19.3497 370.885 14.3455 377.873 14.3455H393.475C397.878 14.3455 401.515 11.1761 401.515 7.33954C401.515 3.50296 397.878 0.333616 393.475 0.333616H164.803C159.06 0 154.274 4.1702 154.274 9.17443C154.274 14.2621 159.06 18.3489 164.803 18.3489H180.788C189.881 18.3489 197.347 24.8544 197.347 32.7777C197.347 40.7011 189.881 47.2066 180.788 47.2066H118.954C113.115 47.2066 108.425 51.3768 108.425 56.381C108.425 61.4687 113.211 65.5555 118.954 65.5555H129.1C137.523 65.5555 144.415 71.5605 144.415 78.9001C144.415 86.2396 137.523 92.2447 129.1 92.2447H115.316C93.6839 92.2447 76.0717 107.674 76.0717 126.44C76.0717 145.29 93.7797 160.636 115.316 160.636H119.815C140.586 160.636 157.624 175.482 157.624 193.58C157.624 211.679 140.586 226.525 119.815 226.525H110.052C89.0894 226.525 71.9558 241.454 71.9558 259.72C71.9558 277.985 89.0894 292.915 110.052 292.915C218.405 292.915 321.016 292.915 429.37 292.915ZM137.81 18.3489C131.971 18.3489 127.281 14.2621 127.281 9.17443C127.281 4.08679 131.971 0 137.81 0C143.649 0 148.339 4.08679 148.339 9.17443C148.435 14.2621 143.649 18.3489 137.81 18.3489ZM452.725 50.2926C448.226 50.2926 444.685 47.1232 444.685 43.2866C444.685 39.3666 448.322 36.2807 452.725 36.2807C457.224 36.2807 460.765 39.45 460.765 43.2866C460.765 47.2066 457.224 50.2926 452.725 50.2926Z" fill="#02A0AE"/>
<path fill-rule="evenodd" clip-rule="evenodd" d="M399.281 293C434.309 293 444.176 308.448 444.176 331.164C444.176 353.88 434.309 375.657 399.281 375.657C384.486 375.657 382.429 383.518 382.429 393.113C382.429 402.708 407.634 410.569 422.429 410.569H425.638C441.057 410.569 453.624 418.719 453.624 428.719C453.624 438.718 441.057 446.868 425.638 446.868H415.833C409.862 446.868 404.96 450.048 404.96 453.92C404.96 457.793 409.862 460.972 415.833 460.972H423.053C427.153 460.972 430.54 463.169 430.54 465.827C430.54 468.486 427.153 470.683 423.053 470.683H374.478C367.972 470.683 362.624 474.151 362.624 478.37C362.624 482.59 367.972 486.058 374.478 486.058H389.006C393.106 486.058 396.493 488.255 396.493 490.913C396.493 493.572 393.106 495.769 389.006 495.769H176.078C170.731 496 166.274 493.11 166.274 489.642C166.274 486.116 170.731 483.284 176.078 483.284H190.963C199.43 483.284 206.382 478.775 206.382 473.284C206.382 467.793 199.43 463.284 190.963 463.284H133.386C127.949 463.284 123.582 460.394 123.582 456.926C123.582 453.4 128.038 450.568 133.386 450.568H142.834C150.677 450.568 157.094 446.406 157.094 441.319C157.094 436.233 150.677 432.071 142.834 432.071H129.999C109.856 432.071 93.4564 421.378 93.4564 408.372C93.4564 395.309 109.945 384.674 129.999 384.674H134.188C153.529 384.674 169.394 374.385 169.394 361.842C169.394 349.299 153.529 339.01 134.188 339.01H125.097C105.578 339.01 89.6239 328.664 89.6239 316.005C89.6239 303.347 105.578 293 125.097 293C225.99 293 298.388 293 399.281 293ZM150.944 483.284C145.507 483.284 141.14 486.116 141.14 489.642C141.14 493.168 145.507 496 150.944 496C156.381 496 160.748 493.168 160.748 489.642C160.837 486.116 156.381 483.284 150.944 483.284ZM444.176 461.146C439.987 461.146 436.689 463.342 436.689 466.001C436.689 468.718 440.076 470.856 444.176 470.856C448.365 470.856 451.663 468.66 451.663 466.001C451.663 463.284 448.365 461.146 444.176 461.146Z" fill="#02A0AE"/>
<path fill-rule="evenodd" clip-rule="evenodd" d="M373.281 294.041C408.908 294.041 438.099 267.082 438.099 234.178C438.099 201.274 408.908 174.315 373.281 174.315C358.233 174.315 345.904 162.928 345.904 149.03C345.904 135.132 358.233 123.745 373.281 123.745H376.545C392.228 123.745 405.01 111.94 405.01 97.4555C405.01 82.9712 392.228 71.166 376.545 71.166H366.573C360.499 71.166 355.513 66.5611 355.513 60.9516C355.513 55.342 360.499 50.7372 366.573 50.7372H373.916C378.086 50.7372 381.531 47.5556 381.531 43.7043C381.531 39.853 378.086 36.6714 373.916 36.6714H324.509C317.891 36.6714 312.452 31.6479 312.452 25.536C312.452 19.4241 317.891 14.4006 324.509 14.4006H339.286C343.456 14.4006 346.901 11.2191 346.901 7.36777C346.901 3.51644 343.456 0.334899 339.286 0.334899H122.713C117.274 0 112.741 4.18623 112.741 9.20972C112.741 14.3169 117.274 18.4194 122.713 18.4194H137.852C146.464 18.4194 153.535 24.95 153.535 32.9038C153.535 40.8576 146.464 47.3882 137.852 47.3882H79.2894C73.7595 47.3882 69.3174 51.5744 69.3174 56.5979C69.3174 61.7051 73.8502 65.8076 79.2894 65.8076H88.8988C96.8763 65.8076 103.403 71.8358 103.403 79.2036C103.403 86.5713 96.8763 92.5995 88.8988 92.5995H75.8445C55.3567 92.5995 38.6763 108.089 38.6763 126.927C38.6763 145.848 55.4473 161.254 75.8445 161.254H80.1053C99.7773 161.254 115.914 176.157 115.914 194.325C115.914 212.493 99.7773 227.396 80.1053 227.396H70.8586C51.0053 227.396 34.7782 242.383 34.7782 260.719C34.7782 279.054 51.0053 294.041 70.8586 294.041C173.479 294.041 270.661 294.041 373.281 294.041ZM97.1483 18.4194C91.6184 18.4194 87.1763 14.3169 87.1763 9.20972C87.1763 4.10251 91.6184 0 97.1483 0C102.678 0 107.12 4.10251 107.12 9.20972C107.211 14.3169 102.678 18.4194 97.1483 18.4194ZM395.401 50.486C391.14 50.486 387.786 47.3045 387.786 43.4531C387.786 39.5181 391.231 36.4202 395.401 36.4202C399.662 36.4202 403.016 39.6018 403.016 43.4531C403.016 47.3882 399.662 50.486 395.401 50.486Z" fill="#00C4D6"/>
<path d="M364.611 478.911L3.59714 475.558V485.467C3.59714 488.157 5.17166 490.441 7.30943 490.86L109.397 510.393C110.614 510.623 111.842 510.69 113.059 510.582L360.694 488.319C362.909 488.116 364.611 485.832 364.611 483.061V478.911Z" fill="url(#paint0_linear)"/>
<path d="M233.606 462.838L7.33498 480.979C3.28986 481.303 0 477.856 0 473.274V289.802C0 285.219 3.28986 281.516 7.33498 281.516H233.606C236.947 281.516 239.635 284.868 239.635 289.018V454.877C239.635 458.999 236.947 462.582 233.606 462.838Z" fill="url(#paint1_linear)"/>
<path d="M237.215 462.838L10.9448 480.979C6.89969 481.303 3.60983 477.856 3.60983 473.274V289.802C3.60983 285.219 6.89969 281.516 10.9448 281.516H237.215C240.556 281.516 243.245 284.868 243.245 289.018V454.877C243.245 458.999 240.544 462.582 237.215 462.838Z" fill="url(#paint2_linear)"/>
<path d="M230.162 451.146L19.4191 466.907C16.1293 467.15 13.441 464.325 13.441 460.581V299.953C13.441 296.209 16.1165 293.168 19.4191 293.154L230.162 292.167C232.914 292.154 235.142 294.898 235.142 298.304V444.603C235.142 448.023 232.914 450.943 230.162 451.146Z" fill="url(#paint3_linear)"/>
<path d="M132.068 286.531C132.068 288.234 130.903 289.626 129.469 289.626C128.036 289.626 126.858 288.247 126.858 286.544C126.858 284.841 128.023 283.449 129.469 283.449C130.903 283.449 132.068 284.827 132.068 286.531Z" fill="white"/>
<path opacity="0.48" d="M182.696 412.527C165.248 401.875 151.538 415.365 138.302 402.064C130.276 393.994 134.219 387.979 124.336 375.921C113.404 362.566 106.274 367.054 95.2907 355.037C81.4016 339.83 88.3525 328.002 76.3708 317.094C61.8545 303.86 46.186 316.107 32.3609 303.414C26.3957 297.939 23.1314 289.978 21.4161 281.516H7.89822C5.53003 281.516 3.59708 283.692 3.59708 286.382V476.559C3.59708 479.249 5.51723 481.276 7.89822 481.073L238.508 462.514C239.635 462.419 240.646 461.676 241.286 460.581C224.402 459.878 214.033 453.471 207.402 446.834C194.434 433.857 196.687 421.056 182.696 412.527Z" fill="white"/>
<path d="M246.227 462.014L3.59714 481.114L109.397 501.336C110.614 501.566 111.842 501.633 113.059 501.525L364.624 478.911L250.093 462.149C248.813 461.96 247.52 461.919 246.227 462.014Z" fill="url(#paint4_linear)"/>
<path opacity="0.3" d="M39.0047 481.587L241.005 465.461L303.512 474.545L103.266 491.779L39.0047 481.587Z" fill="url(#paint5_linear)"/>
<g opacity="0.75">
<path opacity="0.75" d="M56.4396 305.766L33.2314 305.861V297.926H56.4396V305.766Z" fill="white"/>
<path opacity="0.75" d="M178.036 305.32L71.1864 305.712V297.926H178.036V305.32Z" fill="white"/>
<path opacity="0.75" d="M93.5882 318.797L71.1864 319.027V311.227L93.5882 311.092V318.797Z" fill="white"/>
<path opacity="0.75" d="M211.089 317.621L107.81 318.662V310.997L211.089 310.348V317.621Z" fill="white"/>
<path opacity="0.75" d="M93.5882 331.963L71.1864 332.328V324.542L93.5882 324.258V331.963Z" fill="white"/>
<path opacity="0.75" d="M211.089 330.057L107.81 331.733V324.082L211.089 322.784V330.057Z" fill="white"/>
<path opacity="0.75" d="M56.4396 345.967L33.2314 346.494V338.559L56.4396 338.127V345.967Z" fill="white"/>
<path opacity="0.75" d="M178.036 343.223L71.1864 345.642V337.843L178.036 335.829V343.223Z" fill="white"/>
<path opacity="0.75" d="M93.5882 358.295L71.1864 358.943V351.157L93.5882 350.59V358.295Z" fill="white"/>
<path opacity="0.75" d="M211.089 354.902L107.81 357.889V350.238L211.089 347.629V354.902Z" fill="white"/>
<path opacity="0.75" d="M93.5882 371.461L71.1864 372.258V364.459L93.5882 363.756V371.461Z" fill="white"/>
<path opacity="0.75" d="M211.089 367.338L107.81 370.96V363.31L211.089 360.052V367.338Z" fill="white"/>
<path opacity="0.75" d="M93.5882 384.627L71.1864 385.559V377.773L93.5882 376.922V384.627Z" fill="white"/>
<path opacity="0.75" d="M211.089 379.76L107.81 384.045V376.381L211.089 372.488V379.76Z" fill="white"/>
<path opacity="0.75" d="M129.789 396.062L108.156 397.103V389.452L129.789 388.493V396.062Z" fill="white"/>
<path opacity="0.75" d="M226.859 391.426L143.525 395.413V387.884L226.859 384.208V391.426Z" fill="white"/>
<path opacity="0.75" d="M56.4396 412.973L33.2314 414.23V406.295L56.4396 405.133V412.973Z" fill="white"/>
<path opacity="0.75" d="M178.036 406.403L71.1864 412.175V404.389L178.036 398.996V406.403Z" fill="white"/>
<path opacity="0.75" d="M93.5882 424.125L71.1864 425.476V417.69L93.5882 416.42V424.125Z" fill="white"/>
<path opacity="0.75" d="M211.089 417.041L107.81 423.273V415.609L211.089 409.755V417.041Z" fill="white"/>
<path opacity="0.75" d="M93.5882 437.29L71.1864 438.791V431.005L93.5882 429.586V437.29Z" fill="white"/>
<path opacity="0.75" d="M211.089 429.464L107.81 436.344V428.693L211.089 422.191V429.464Z" fill="white"/>
<path opacity="0.75" d="M56.4396 453.173L33.2314 454.863V446.928L56.4396 445.333V453.173Z" fill="white"/>
<path opacity="0.75" d="M178.036 444.306L71.1864 452.092V444.306L178.036 436.898V444.306Z" fill="white"/>
</g>
<path d="M386.417 253.592L196.625 247.007C190.266 246.786 185.076 252.085 185.076 258.852V454.187C185.076 460.954 190.254 466.201 196.625 465.916L386.417 457.356C391.903 457.109 396.343 451.849 396.343 445.602V265.243C396.343 258.995 391.915 253.787 386.417 253.592Z" fill="url(#paint6_linear)"/>
<path opacity="0.74" d="M196.625 462.019C192.296 462.214 188.778 458.642 188.778 454.044V258.956C188.778 254.358 192.296 250.747 196.625 250.89L386.417 257.203C390.156 257.333 393.182 260.878 393.182 265.126V445.706C393.182 449.966 390.156 453.538 386.417 453.706L196.625 462.019Z" fill="white"/>
<path d="M386.417 253.592L196.625 247.007C190.266 246.786 185.076 252.085 185.076 258.852V267.632L396.343 273.347V265.243C396.343 258.995 391.915 253.787 386.417 253.592Z" fill="url(#paint7_linear)"/>
<path d="M205.604 258.294C205.604 260.489 203.932 262.216 201.865 262.164C199.799 262.099 198.114 260.268 198.114 258.073C198.114 255.865 199.799 254.137 201.865 254.202C203.932 254.267 205.604 256.099 205.604 258.294Z" fill="white"/>
<path d="M218.667 258.696C218.667 260.878 217.007 262.606 214.965 262.541C212.911 262.489 211.25 260.658 211.25 258.463C211.25 256.267 212.911 254.553 214.965 254.618C217.019 254.683 218.667 256.514 218.667 258.696Z" fill="white"/>
<path d="M231.619 259.086C231.619 261.268 229.971 262.983 227.942 262.918C225.912 262.853 224.264 261.047 224.264 258.865C224.264 256.683 225.912 254.969 227.942 255.034C229.971 255.099 231.619 256.917 231.619 259.086Z" fill="white"/>
<path d="M298.79 292.077L198.532 290.168V296.389L298.79 298.065V292.077Z" fill="white"/>
<path d="M374.154 293.506V299.325L384.756 299.506V293.7L374.154 293.506Z" fill="white"/>
<path d="M219.725 311.625L198.532 311.378V304.962L219.725 305.247V311.625Z" fill="white"/>
<path d="M332.948 312.898L233.255 311.768V305.429L332.948 306.793V312.898Z" fill="white"/>
<path d="M253.92 322.743L233.255 322.6V316.262L253.92 316.456V322.743Z" fill="white"/>
<path d="M364.375 323.548L267.118 322.847V316.586L364.375 317.522V323.548Z" fill="white"/>
<path d="M253.92 333.484L233.255 333.419V327.081L253.92 327.198V333.484Z" fill="white"/>
<path d="M364.375 333.848L267.118 333.536V327.276L364.375 327.821V333.848Z" fill="white"/>
<path d="M219.725 344.252L198.532 344.278V337.849L219.725 337.888V344.252Z" fill="white"/>
<path d="M332.948 344.174L233.255 344.252V337.914L332.948 338.069V344.174Z" fill="white"/>
<path d="M253.92 354.967L233.255 355.071V348.733L253.92 348.681V354.967Z" fill="white"/>
<path d="M364.375 354.448L267.118 354.916V348.655L364.375 348.421V354.448Z" fill="white"/>
<path d="M253.92 365.709L233.255 365.891V359.565L253.92 359.423V365.709Z" fill="white"/>
<path d="M364.375 364.748L267.118 365.605V359.345L364.375 358.721V364.748Z" fill="white"/>
<path d="M253.92 376.464L233.255 376.723V370.385L253.92 370.164V376.464Z" fill="white"/>
<path d="M364.375 375.048L267.118 376.295V370.034L364.375 369.021V375.048Z" fill="white"/>
<path d="M287.585 386.634L267.437 386.971V380.711L287.585 380.425V386.634Z" fill="white"/>
<path d="M379.467 385.101L300.439 386.426V380.243L379.467 379.1V385.101Z" fill="white"/>
<path d="M219.725 398.648L198.532 399.09V392.673L219.725 392.284V398.648Z" fill="white"/>
<path d="M332.948 396.297L233.255 398.375V392.037L332.948 390.192V396.297Z" fill="white"/>
<path d="M253.92 408.688L233.255 409.195V402.856L253.92 402.402V408.688Z" fill="white"/>
<path d="M364.375 405.948L267.118 408.363V402.103L364.375 399.921V405.948Z" fill="white"/>
<path d="M253.92 419.43L233.255 420.027V413.689L253.92 413.143V419.43Z" fill="white"/>
<path d="M364.375 416.247L267.118 419.053V412.793L364.375 410.221V416.247Z" fill="white"/>
<path d="M219.725 431.288L198.532 431.977V425.56L219.725 424.924V431.288Z" fill="white"/>
<path d="M332.948 427.586L233.255 430.847V424.508L332.948 421.482V427.586Z" fill="white"/>
<path d="M253.92 440.913L233.255 441.666V435.328L253.92 434.626V440.913Z" fill="white"/>
<path d="M364.375 436.847L267.118 440.432V434.172L364.375 430.821V436.847Z" fill="white"/>
<g opacity="0.5">
<path opacity="0.5" d="M312.641 328.692C290.476 294.636 252.099 305.468 227.831 267.827C223.452 261.034 220.488 254.137 218.446 247.76L196.625 247.007C190.266 246.786 185.076 252.085 185.076 258.852V454.187C185.076 460.954 190.254 466.201 196.625 465.916L379.467 457.668C375.273 451.291 338.791 427.664 329.369 391.387C320.759 358.202 326.023 349.24 312.641 328.692Z" fill="white"/>
</g>
<defs>
<linearGradient id="paint0_linear" x1="156.086" y1="493.598" x2="130.324" y2="503.844" gradientUnits="userSpaceOnUse">
<stop stop-color="#40447E"/>
<stop offset="0.9964" stop-color="#3C3B6B"/>
</linearGradient>
<linearGradient id="paint1_linear" x1="114.819" y1="374.535" x2="88.1086" y2="385.159" gradientUnits="userSpaceOnUse">
<stop stop-color="#40447E"/>
<stop offset="0.9964" stop-color="#3C3B6B"/>
</linearGradient>
<linearGradient id="paint2_linear" x1="3.60188" y1="381.258" x2="243.246" y2="381.258" gradientUnits="userSpaceOnUse">
<stop stop-color="#B2B8E3"/>
<stop offset="0.9964" stop-color="#3C3B6B"/>
</linearGradient>
<linearGradient id="paint3_linear" x1="18.9952" y1="462.839" x2="272.7" y2="267.192" gradientUnits="userSpaceOnUse">
<stop stop-color="#E94BB4"/>
<stop offset="0.9964" stop-color="#6165D7"/>
</linearGradient>
<linearGradient id="paint4_linear" x1="3.60199" y1="481.773" x2="364.616" y2="481.773" gradientUnits="userSpaceOnUse">
<stop stop-color="#40447E"/>
<stop offset="0.9964" stop-color="#3C3B6B"/>
</linearGradient>
<linearGradient id="paint5_linear" x1="39.0055" y1="478.621" x2="303.518" y2="478.621" gradientUnits="userSpaceOnUse">
<stop stop-color="#40447E"/>
<stop offset="0.9964" stop-color="#3C3B6B"/>
</linearGradient>
<linearGradient id="paint6_linear" x1="361.542" y1="202.66" x2="137.34" y2="627.297" gradientUnits="userSpaceOnUse">
<stop offset="0.00359712" stop-color="#E38DDD"/>
<stop offset="1" stop-color="#9571F6"/>
</linearGradient>
<linearGradient id="paint7_linear" x1="272.579" y1="189.094" x2="312.164" y2="339.04" gradientUnits="userSpaceOnUse">
<stop offset="0.00359712" stop-color="#E94BB4"/>
<stop offset="1" stop-color="#9571F6"/>
</linearGradient>
</defs>
</svg>
